<?xml version="1.0" encoding="UTF-8"?>
<svg xmlns="http://www.w3.org/2000/svg" xmlns:xlink="http://www.w3.org/1999/xlink" width="150px" height="150px" viewBox="0 0 150 150" version="1.1">
<g id="surface1">
<path style=" stroke:none;fill-rule:nonzero;fill:rgb(12.941177%,12.941177%,12.941177%);fill-opacity:1;" d="M 74.074219 37.527344 C 76.554688 37.527344 78.796875 38.53125 80.421875 40.15625 C 82.042969 41.78125 83.050781 44.023438 83.050781 46.5 C 83.050781 48.976562 82.042969 51.222656 80.421875 52.847656 C 78.796875 54.46875 76.554688 55.472656 74.074219 55.472656 C 71.597656 55.472656 69.355469 54.46875 67.730469 52.847656 C 66.105469 51.222656 65.101562 48.976562 65.101562 46.5 C 65.101562 44.023438 66.105469 41.78125 67.730469 40.15625 C 69.355469 38.53125 71.597656 37.527344 74.074219 37.527344 Z M 77.105469 43.46875 C 76.332031 42.695312 75.257812 42.214844 74.074219 42.214844 C 72.890625 42.214844 71.820312 42.695312 71.042969 43.46875 C 70.269531 44.246094 69.789062 45.316406 69.789062 46.5 C 69.789062 47.683594 70.269531 48.757812 71.042969 49.53125 C 71.820312 50.308594 72.890625 50.785156 74.074219 50.785156 C 75.257812 50.785156 76.332031 50.308594 77.105469 49.53125 C 77.882812 48.757812 78.363281 47.683594 78.363281 46.5 C 78.363281 45.316406 77.882812 44.246094 77.105469 43.46875 Z M 77.105469 43.46875 "/>
<path style=" stroke:none;fill-rule:nonzero;fill:rgb(12.941177%,12.941177%,12.941177%);fill-opacity:1;" d="M 84.195312 85.199219 C 84.195312 83.902344 83.148438 82.855469 81.851562 82.855469 C 80.558594 82.855469 79.507812 83.902344 79.507812 85.199219 L 79.507812 110.128906 C 79.507812 111.421875 80.558594 112.472656 81.851562 112.472656 C 83.148438 112.472656 84.195312 111.421875 84.195312 110.128906 Z M 84.195312 85.199219 "/>
<path style=" stroke:none;fill-rule:nonzero;fill:rgb(12.941177%,12.941177%,12.941177%);fill-opacity:1;" d="M 70.492188 85.199219 C 70.492188 83.902344 69.441406 82.855469 68.148438 82.855469 C 66.851562 82.855469 65.804688 83.902344 65.804688 85.199219 L 65.804688 110.128906 C 65.804688 111.421875 66.851562 112.472656 68.148438 112.472656 C 69.441406 112.472656 70.492188 111.421875 70.492188 110.128906 Z M 70.492188 85.199219 "/>
<path style=" stroke:none;fill-rule:nonzero;fill:rgb(12.941177%,12.941177%,12.941177%);fill-opacity:1;" d="M 72.722656 58.71875 L 77.277344 58.71875 C 79.183594 58.71875 80.914062 59.496094 82.167969 60.75 C 83.417969 62.003906 84.195312 63.734375 84.195312 65.640625 L 84.195312 90.273438 C 84.195312 91.566406 83.148438 92.617188 81.851562 92.617188 L 68.148438 92.617188 C 66.851562 92.617188 65.804688 91.566406 65.804688 90.273438 L 65.804688 65.640625 C 65.804688 63.734375 66.582031 62.003906 67.835938 60.75 C 69.085938 59.496094 70.816406 58.71875 72.722656 58.71875 Z M 77.277344 63.40625 L 72.722656 63.40625 C 72.113281 63.40625 71.554688 63.65625 71.148438 64.0625 C 70.742188 64.46875 70.492188 65.027344 70.492188 65.640625 L 70.492188 87.929688 L 79.507812 87.929688 L 79.507812 65.640625 C 79.507812 65.027344 79.257812 64.46875 78.851562 64.0625 C 78.445312 63.65625 77.886719 63.40625 77.277344 63.40625 Z M 77.277344 63.40625 "/>
<path style=" stroke:none;fill-rule:nonzero;fill:rgb(12.941177%,12.941177%,12.941177%);fill-opacity:1;" d="M 54.972656 44.441406 C 54.082031 43.507812 52.601562 43.46875 51.664062 44.359375 C 50.730469 45.25 50.695312 46.730469 51.582031 47.664062 L 66.332031 63.195312 C 67.222656 64.128906 68.703125 64.167969 69.636719 63.277344 C 70.574219 62.386719 70.609375 60.90625 69.71875 59.972656 Z M 54.972656 44.441406 "/>
<path style=" stroke:none;fill-rule:nonzero;fill:rgb(12.941177%,12.941177%,12.941177%);fill-opacity:1;" d="M 98.417969 47.664062 C 99.304688 46.730469 99.269531 45.25 98.332031 44.359375 C 97.398438 43.46875 95.917969 43.507812 95.027344 44.441406 L 80.28125 59.972656 C 79.390625 60.90625 79.425781 62.386719 80.363281 63.277344 C 81.296875 64.167969 82.777344 64.128906 83.667969 63.195312 Z M 98.417969 47.664062 "/>
<path style=" stroke:none;fill-rule:nonzero;fill:rgb(12.941177%,12.941177%,12.941177%);fill-opacity:1;" d="M 37.761719 51.476562 C 39.878906 51.476562 41.792969 52.332031 43.179688 53.71875 C 44.5625 55.105469 45.421875 57.019531 45.421875 59.132812 C 45.421875 61.246094 44.5625 63.160156 43.179688 64.546875 C 41.792969 65.933594 39.878906 66.789062 37.761719 66.789062 C 35.648438 66.789062 33.734375 65.933594 32.347656 64.546875 C 30.964844 63.160156 30.105469 61.246094 30.105469 59.132812 C 30.105469 57.019531 30.964844 55.105469 32.347656 53.71875 C 33.734375 52.332031 35.648438 51.476562 37.761719 51.476562 Z M 39.863281 57.03125 C 39.328125 56.496094 38.582031 56.164062 37.761719 56.164062 C 36.941406 56.164062 36.199219 56.496094 35.664062 57.03125 C 35.125 57.570312 34.792969 58.3125 34.792969 59.132812 C 34.792969 59.953125 35.125 60.695312 35.664062 61.230469 C 36.199219 61.769531 36.941406 62.101562 37.761719 62.101562 C 38.582031 62.101562 39.328125 61.769531 39.863281 61.230469 C 40.402344 60.695312 40.734375 59.953125 40.734375 59.132812 C 40.734375 58.3125 40.402344 57.570312 39.863281 57.03125 Z M 39.863281 57.03125 "/>
<path style=" stroke:none;fill-rule:nonzero;fill:rgb(12.941177%,12.941177%,12.941177%);fill-opacity:1;" d="M 46.339844 90.148438 C 46.339844 88.851562 45.292969 87.804688 43.996094 87.804688 C 42.703125 87.804688 41.652344 88.851562 41.652344 90.148438 L 41.652344 110.128906 C 41.652344 111.421875 42.703125 112.472656 43.996094 112.472656 C 45.292969 112.472656 46.339844 111.421875 46.339844 110.128906 Z M 46.339844 90.148438 "/>
<path style=" stroke:none;fill-rule:nonzero;fill:rgb(12.941177%,12.941177%,12.941177%);fill-opacity:1;" d="M 35.355469 90.148438 C 35.355469 88.851562 34.304688 87.804688 33.011719 87.804688 C 31.71875 87.804688 30.667969 88.851562 30.667969 90.148438 L 30.667969 110.128906 C 30.667969 111.421875 31.71875 112.472656 33.011719 112.472656 C 34.304688 112.472656 35.355469 111.421875 35.355469 110.128906 Z M 35.355469 90.148438 "/>
<path style=" stroke:none;fill-rule:nonzero;fill:rgb(12.941177%,12.941177%,12.941177%);fill-opacity:1;" d="M 36.679688 68.460938 L 40.328125 68.460938 C 41.984375 68.460938 43.488281 69.136719 44.578125 70.222656 C 45.664062 71.3125 46.339844 72.816406 46.339844 74.472656 L 46.339844 94.214844 C 46.339844 95.507812 45.292969 96.558594 43.996094 96.558594 L 33.011719 96.558594 C 31.71875 96.558594 30.667969 95.507812 30.667969 94.214844 L 30.667969 74.472656 C 30.667969 72.816406 31.34375 71.3125 32.433594 70.222656 C 33.519531 69.136719 35.023438 68.460938 36.679688 68.460938 Z M 40.328125 73.148438 L 36.679688 73.148438 C 36.316406 73.148438 35.988281 73.296875 35.746094 73.539062 C 35.503906 73.777344 35.355469 74.109375 35.355469 74.472656 L 35.355469 91.871094 L 41.652344 91.871094 L 41.652344 74.472656 C 41.652344 74.109375 41.503906 73.777344 41.261719 73.539062 C 41.019531 73.296875 40.691406 73.148438 40.328125 73.148438 Z M 40.328125 73.148438 "/>
<path style=" stroke:none;fill-rule:nonzero;fill:rgb(12.941177%,12.941177%,12.941177%);fill-opacity:1;" d="M 22.789062 57.164062 C 21.898438 56.226562 20.417969 56.191406 19.480469 57.082031 C 18.546875 57.96875 18.511719 59.449219 19.398438 60.386719 L 31.222656 72.832031 C 32.113281 73.765625 33.589844 73.804688 34.527344 72.914062 C 35.460938 72.023438 35.5 70.542969 34.609375 69.609375 Z M 22.789062 57.164062 "/>
<path style=" stroke:none;fill-rule:nonzero;fill:rgb(12.941177%,12.941177%,12.941177%);fill-opacity:1;" d="M 57.609375 60.386719 C 58.5 59.449219 58.460938 57.96875 57.527344 57.082031 C 56.589844 56.191406 55.109375 56.226562 54.222656 57.164062 L 42.398438 69.609375 C 41.507812 70.542969 41.546875 72.023438 42.480469 72.914062 C 43.417969 73.804688 44.898438 73.765625 45.785156 72.832031 Z M 57.609375 60.386719 "/>
<path style=" stroke:none;fill-rule:nonzero;fill:rgb(12.941177%,12.941177%,12.941177%);fill-opacity:1;" d="M 110.753906 51.476562 C 112.871094 51.476562 114.785156 52.332031 116.167969 53.71875 C 117.554688 55.105469 118.414062 57.019531 118.414062 59.132812 C 118.414062 61.246094 117.554688 63.160156 116.167969 64.546875 C 114.785156 65.933594 112.871094 66.789062 110.753906 66.789062 C 108.640625 66.789062 106.726562 65.933594 105.339844 64.546875 C 103.957031 63.160156 103.097656 61.246094 103.097656 59.132812 C 103.097656 57.019531 103.957031 55.105469 105.339844 53.71875 C 106.726562 52.332031 108.640625 51.476562 110.753906 51.476562 Z M 112.855469 57.03125 C 112.316406 56.496094 111.574219 56.164062 110.753906 56.164062 C 109.933594 56.164062 109.191406 56.496094 108.65625 57.03125 C 108.117188 57.570312 107.785156 58.3125 107.785156 59.132812 C 107.785156 59.953125 108.117188 60.695312 108.65625 61.230469 C 109.191406 61.769531 109.933594 62.101562 110.753906 62.101562 C 111.574219 62.101562 112.316406 61.769531 112.855469 61.230469 C 113.394531 60.695312 113.726562 59.953125 113.726562 59.132812 C 113.726562 58.3125 113.394531 57.570312 112.855469 57.03125 Z M 112.855469 57.03125 "/>
<path style=" stroke:none;fill-rule:nonzero;fill:rgb(12.941177%,12.941177%,12.941177%);fill-opacity:1;" d="M 119.332031 90.148438 C 119.332031 88.851562 118.28125 87.804688 116.988281 87.804688 C 115.695312 87.804688 114.644531 88.851562 114.644531 90.148438 L 114.644531 110.128906 C 114.644531 111.421875 115.695312 112.472656 116.988281 112.472656 C 118.28125 112.472656 119.332031 111.421875 119.332031 110.128906 Z M 119.332031 90.148438 "/>
<path style=" stroke:none;fill-rule:nonzero;fill:rgb(12.941177%,12.941177%,12.941177%);fill-opacity:1;" d="M 108.347656 90.148438 C 108.347656 88.851562 107.296875 87.804688 106.003906 87.804688 C 104.707031 87.804688 103.660156 88.851562 103.660156 90.148438 L 103.660156 110.128906 C 103.660156 111.421875 104.707031 112.472656 106.003906 112.472656 C 107.296875 112.472656 108.347656 111.421875 108.347656 110.128906 Z M 108.347656 90.148438 "/>
<path style=" stroke:none;fill-rule:nonzero;fill:rgb(12.941177%,12.941177%,12.941177%);fill-opacity:1;" d="M 109.671875 68.460938 L 113.320312 68.460938 C 114.976562 68.460938 116.480469 69.136719 117.566406 70.222656 C 118.65625 71.3125 119.332031 72.816406 119.332031 74.472656 L 119.332031 94.214844 C 119.332031 95.507812 118.28125 96.558594 116.988281 96.558594 L 106.003906 96.558594 C 104.707031 96.558594 103.660156 95.507812 103.660156 94.214844 L 103.660156 74.472656 C 103.660156 72.816406 104.335938 71.3125 105.421875 70.222656 C 106.511719 69.136719 108.015625 68.460938 109.671875 68.460938 Z M 113.320312 73.148438 L 109.671875 73.148438 C 109.308594 73.148438 108.980469 73.296875 108.738281 73.539062 C 108.496094 73.777344 108.347656 74.109375 108.347656 74.472656 L 108.347656 91.871094 L 114.644531 91.871094 L 114.644531 74.472656 C 114.644531 74.109375 114.496094 73.777344 114.253906 73.539062 C 114.011719 73.296875 113.683594 73.148438 113.320312 73.148438 Z M 113.320312 73.148438 "/>
<path style=" stroke:none;fill-rule:nonzero;fill:rgb(12.941177%,12.941177%,12.941177%);fill-opacity:1;" d="M 95.78125 57.164062 C 94.890625 56.226562 93.410156 56.191406 92.472656 57.082031 C 91.539062 57.96875 91.503906 59.449219 92.390625 60.386719 L 104.214844 72.832031 C 105.101562 73.765625 106.582031 73.804688 107.519531 72.914062 C 108.453125 72.023438 108.492188 70.542969 107.601562 69.609375 Z M 95.78125 57.164062 "/>
<path style=" stroke:none;fill-rule:nonzero;fill:rgb(12.941177%,12.941177%,12.941177%);fill-opacity:1;" d="M 130.601562 60.386719 C 131.492188 59.449219 131.453125 57.96875 130.519531 57.082031 C 129.582031 56.191406 128.101562 56.226562 127.214844 57.164062 L 115.390625 69.609375 C 114.5 70.542969 114.539062 72.023438 115.472656 72.914062 C 116.410156 73.804688 117.890625 73.765625 118.777344 72.832031 Z M 130.601562 60.386719 "/>
</g>
</svg>
