<?xml version="1.0" encoding="UTF-8"?>
<svg xmlns="http://www.w3.org/2000/svg" xmlns:xlink="http://www.w3.org/1999/xlink" width="150px" height="150px" viewBox="0 0 150 150" version="1.1">
<g id="surface1">
<path style=" stroke:none;fill-rule:nonzero;fill:rgb(12.941177%,12.941177%,12.941177%);fill-opacity:1;" d="M 75 16.40625 C 91.179688 16.40625 105.828125 22.964844 116.433594 33.566406 C 127.035156 44.171875 133.59375 58.820312 133.59375 75 C 133.59375 91.179688 127.035156 105.828125 116.433594 116.433594 C 105.828125 127.035156 91.179688 133.59375 75 133.59375 C 58.820312 133.59375 44.171875 127.035156 33.566406 116.433594 C 22.964844 105.828125 16.40625 91.179688 16.40625 75 C 16.40625 58.820312 22.964844 44.171875 33.566406 33.566406 C 44.171875 22.964844 58.820312 16.40625 75 16.40625 Z M 113.117188 36.882812 C 103.363281 27.128906 89.886719 21.09375 75 21.09375 C 60.113281 21.09375 46.636719 27.128906 36.882812 36.882812 C 27.128906 46.636719 21.09375 60.113281 21.09375 75 C 21.09375 89.886719 27.128906 103.363281 36.882812 113.117188 C 46.636719 122.871094 60.113281 128.90625 75 128.90625 C 89.886719 128.90625 103.363281 122.871094 113.117188 113.117188 C 122.871094 103.363281 128.90625 89.886719 128.90625 75 C 128.90625 60.113281 122.871094 46.636719 113.117188 36.882812 Z M 113.117188 36.882812 "/>
<path style=" stroke:none;fill-rule:nonzero;fill:rgb(12.941177%,12.941177%,12.941177%);fill-opacity:1;" d="M 77.34375 23.4375 L 77.34375 30.46875 L 72.65625 30.46875 L 72.65625 23.4375 Z M 77.34375 23.4375 "/>
<path style=" stroke:none;fill-rule:nonzero;fill:rgb(12.941177%,12.941177%,12.941177%);fill-opacity:1;" d="M 77.34375 119.53125 L 77.34375 126.5625 L 72.65625 126.5625 L 72.65625 119.53125 Z M 77.34375 119.53125 "/>
<path style=" stroke:none;fill-rule:nonzero;fill:rgb(12.941177%,12.941177%,12.941177%);fill-opacity:1;" d="M 126.5625 77.34375 L 119.53125 77.34375 L 119.53125 72.65625 L 126.5625 72.65625 Z M 126.5625 77.34375 "/>
<path style=" stroke:none;fill-rule:nonzero;fill:rgb(12.941177%,12.941177%,12.941177%);fill-opacity:1;" d="M 30.46875 77.34375 L 23.4375 77.34375 L 23.4375 72.65625 L 30.46875 72.65625 Z M 30.46875 77.34375 "/>
<path style=" stroke:none;fill-rule:nonzero;fill:rgb(12.941177%,12.941177%,12.941177%);fill-opacity:1;" d="M 75 67.96875 C 76.941406 67.96875 78.699219 68.757812 79.972656 70.027344 C 81.242188 71.300781 82.03125 73.058594 82.03125 75 C 82.03125 76.941406 81.242188 78.699219 79.972656 79.972656 C 78.699219 81.246094 76.941406 82.03125 75 82.03125 C 73.058594 82.03125 71.300781 81.246094 70.027344 79.972656 C 68.757812 78.699219 67.96875 76.941406 67.96875 75 C 67.96875 73.058594 68.757812 71.300781 70.027344 70.027344 C 71.300781 68.757812 73.058594 67.96875 75 67.96875 Z M 76.65625 73.34375 C 76.234375 72.917969 75.648438 72.65625 75 72.65625 C 74.351562 72.65625 73.765625 72.917969 73.34375 73.34375 C 72.917969 73.765625 72.65625 74.351562 72.65625 75 C 72.65625 75.648438 72.917969 76.234375 73.34375 76.65625 C 73.765625 77.082031 74.351562 77.34375 75 77.34375 C 75.648438 77.34375 76.234375 77.082031 76.65625 76.65625 C 77.082031 76.234375 77.34375 75.648438 77.34375 75 C 77.34375 74.351562 77.082031 73.765625 76.65625 73.34375 Z M 76.65625 73.34375 "/>
<path style=" stroke:none;fill-rule:nonzero;fill:rgb(12.941177%,12.941177%,12.941177%);fill-opacity:1;" d="M 77.34375 39.84375 C 77.34375 38.550781 76.292969 37.5 75 37.5 C 73.707031 37.5 72.65625 38.550781 72.65625 39.84375 L 72.65625 69.054688 C 72.65625 70.347656 73.707031 71.398438 75 71.398438 C 76.292969 71.398438 77.34375 70.347656 77.34375 69.054688 Z M 77.34375 39.84375 "/>
<path style=" stroke:none;fill-rule:nonzero;fill:rgb(12.941177%,12.941177%,12.941177%);fill-opacity:1;" d="M 107.8125 77.34375 C 109.105469 77.34375 110.15625 76.292969 110.15625 75 C 110.15625 73.707031 109.105469 72.65625 107.8125 72.65625 L 80.945312 72.65625 C 79.652344 72.65625 78.601562 73.707031 78.601562 75 C 78.601562 76.292969 79.652344 77.34375 80.945312 77.34375 Z M 107.8125 77.34375 "/>
</g>
</svg>
