<?xml version="1.0" encoding="UTF-8"?>
<svg xmlns="http://www.w3.org/2000/svg" xmlns:xlink="http://www.w3.org/1999/xlink" width="150px" height="150px" viewBox="0 0 150 150" version="1.1">
<g id="surface1">
<path style="fill:none;stroke-width:2;stroke-linecap:round;stroke-linejoin:round;stroke:rgb(13.333334%,16.470589%,20%);stroke-opacity:1;stroke-miterlimit:2;" d="M 55.578333 31.578333 C 56.271667 32.271667 56.36 33.366667 55.786667 34.161667 C 55.391667 34.711667 54.93 35.351667 54.503333 35.943333 C 54.161667 36.418333 53.626667 36.72 53.041667 36.766667 C 52.456667 36.815 51.881667 36.603333 51.466667 36.188333 C 46.481667 31.203333 32 16.721667 32 16.721667 C 32 16.721667 17.518333 31.203333 12.533333 36.188333 C 12.118333 36.603333 11.543333 36.815 10.958333 36.766667 C 10.373333 36.72 9.838333 36.418333 9.496667 35.943333 C 9.07 35.351667 8.608333 34.711667 8.213333 34.161667 C 7.64 33.366667 7.728333 32.271667 8.421667 31.578333 C 13.383333 26.616667 32 8 32 8 C 32 8 50.616667 26.616667 55.578333 31.578333 Z M 55.578333 31.578333 " transform="matrix(2.34375,0,0,2.34375,0,0)"/>
<path style="fill:none;stroke-width:2;stroke-linecap:round;stroke-linejoin:round;stroke:rgb(13.333334%,16.470589%,20%);stroke-opacity:1;stroke-miterlimit:2;" d="M 13.976667 34.745 L 32 16.721667 L 50.023333 34.745 L 50.023333 54.746667 C 50.023333 55.345 49.786667 55.918333 49.363333 56.34 C 48.941667 56.763333 48.368333 57 47.77 57 C 41.298333 57 22.701667 57 16.23 57 C 15.631667 57 15.058333 56.763333 14.636667 56.34 C 14.213333 55.918333 13.976667 55.345 13.976667 54.746667 Z M 13.976667 34.745 " transform="matrix(2.34375,0,0,2.34375,0,0)"/>
<path style="fill:none;stroke-width:2;stroke-linecap:round;stroke-linejoin:round;stroke:rgb(13.333334%,16.470589%,20%);stroke-opacity:1;stroke-miterlimit:2;" d="M 20.736667 19.263333 L 12.851667 27.148333 L 12.851667 15.321667 L 20.736667 15.321667 Z M 20.736667 19.263333 " transform="matrix(2.34375,0,0,2.34375,0,0)"/>
<path style="fill:none;stroke-width:2;stroke-linecap:round;stroke-linejoin:round;stroke:rgb(13.333334%,16.470589%,20%);stroke-opacity:1;stroke-miterlimit:2;" d="M 37 44.5 C 37 44.101667 36.841667 43.721667 36.561667 43.438333 C 36.278333 43.158333 35.898333 43 35.5 43 C 33.611667 43 30.388333 43 28.5 43 C 28.101667 43 27.721667 43.158333 27.438333 43.438333 C 27.158333 43.721667 27 44.101667 27 44.5 C 27 48.113333 27 57 27 57 L 37 57 Z M 37 44.5 " transform="matrix(2.34375,0,0,2.34375,0,0)"/>
</g>
</svg>
