<?xml version="1.0" encoding="UTF-8"?>
<svg xmlns="http://www.w3.org/2000/svg" xmlns:xlink="http://www.w3.org/1999/xlink" width="150px" height="150px" viewBox="0 0 150 150" version="1.1">
<g id="surface1">
<path style=" stroke:none;fill-rule:nonzero;fill:rgb(13.725491%,12.156863%,12.54902%);fill-opacity:1;" d="M 127.859375 12 L 22.140625 12 C 13.238281 12.03125 6.03125 19.238281 6 28.140625 L 6 103.859375 C 6.03125 112.761719 13.238281 119.96875 22.140625 120 L 36 120 L 36 141.058594 C 35.996094 142.257812 36.738281 143.335938 37.859375 143.761719 C 39.78125 143.753906 40.53125 143.453125 41.101562 142.921875 L 65.101562 119.761719 L 128.101562 119.761719 C 136.8125 119.601562 143.839844 112.574219 144 103.859375 L 144 28.140625 C 143.96875 19.238281 136.761719 12.03125 127.859375 12 Z M 138 103.859375 C 138 109.460938 133.460938 114 127.859375 114 L 63.601562 114 C 62.820312 114.007812 62.070312 114.308594 61.5 114.839844 L 42 133.980469 L 42 116.941406 C 42 116.148438 41.683594 115.394531 41.117188 114.839844 C 40.554688 114.285156 39.789062 113.984375 39 114 L 22.140625 114 C 16.539062 114 12 109.460938 12 103.859375 L 12 28.140625 C 12 22.539062 16.539062 18 22.140625 18 L 127.859375 18 C 133.460938 18 138 22.539062 138 28.140625 Z M 138 103.859375 "/>
<path style=" stroke:none;fill-rule:nonzero;fill:rgb(13.725491%,12.156863%,12.54902%);fill-opacity:1;" d="M 131.519531 25.320312 C 130.582031 23.945312 128.714844 23.570312 127.320312 24.480469 L 75 59.398438 L 22.679688 24.480469 C 21.289062 23.550781 19.40625 23.929688 18.480469 25.320312 C 17.550781 26.710938 17.929688 28.59375 19.320312 29.519531 L 73.320312 65.519531 C 74.347656 66.160156 75.652344 66.160156 76.679688 65.519531 L 130.679688 29.519531 C 132.054688 28.582031 132.429688 26.714844 131.519531 25.320312 Z M 131.519531 25.320312 "/>
<path style=" stroke:none;fill-rule:nonzero;fill:rgb(13.725491%,12.156863%,12.54902%);fill-opacity:1;" d="M 54.71875 61.019531 L 18.71875 103.019531 C 17.570312 104.207031 17.570312 106.09375 18.71875 107.28125 C 19.988281 108.351562 21.875 108.21875 22.980469 106.980469 L 58.980469 64.980469 C 60.050781 63.714844 59.917969 61.824219 58.679688 60.71875 C 57.464844 59.832031 55.785156 59.960938 54.71875 61.019531 Z M 54.71875 61.019531 "/>
<path style=" stroke:none;fill-rule:nonzero;fill:rgb(13.725491%,12.156863%,12.54902%);fill-opacity:1;" d="M 95.28125 61.019531 C 94.175781 59.78125 92.285156 59.648438 91.019531 60.71875 C 89.78125 61.824219 89.648438 63.714844 90.71875 64.980469 L 126.71875 106.980469 C 127.824219 108.21875 129.714844 108.351562 130.980469 107.28125 C 132.21875 106.175781 132.351562 104.285156 131.28125 103.019531 Z M 95.28125 61.019531 "/>
</g>
</svg>
