<?xml version="1.0" encoding="UTF-8"?>
<svg xmlns="http://www.w3.org/2000/svg" xmlns:xlink="http://www.w3.org/1999/xlink" width="150px" height="150px" viewBox="0 0 150 150" version="1.1">
<g id="surface1">
<path style=" stroke:none;fill-rule:nonzero;fill:rgb(13.725491%,12.156863%,12.54902%);fill-opacity:1;" d="M 121.875 120.515625 C 118.820312 110.515625 117.242188 100.125 117.1875 89.671875 L 117.1875 64.734375 C 117.601562 46.710938 106.183594 30.539062 89.0625 24.890625 L 89.0625 23.4375 C 89.0625 15.671875 82.765625 9.375 75 9.375 C 67.234375 9.375 60.9375 15.671875 60.9375 23.4375 L 60.9375 24.796875 C 43.664062 30.339844 32.101562 46.597656 32.53125 64.734375 L 32.53125 89.671875 C 32.5 100.128906 30.917969 110.523438 27.84375 120.515625 C 27.402344 121.96875 27.691406 123.550781 28.625 124.75 C 29.554688 125.953125 31.011719 126.628906 32.53125 126.5625 L 56.90625 126.5625 C 59.039062 134.820312 66.472656 140.597656 75 140.625 C 83.476562 140.535156 90.835938 134.769531 92.953125 126.5625 L 117.1875 126.5625 C 118.664062 126.5625 120.050781 125.867188 120.9375 124.6875 C 121.902344 123.527344 122.25 121.976562 121.875 120.515625 Z M 70.3125 23.4375 C 70.3125 20.847656 72.410156 18.75 75 18.75 C 77.589844 18.75 79.6875 20.847656 79.6875 23.4375 Z M 75 131.25 C 71.6875 131.214844 68.640625 129.429688 66.984375 126.5625 L 83.296875 126.5625 C 81.589844 129.519531 78.414062 131.3125 75 131.25 Z M 89.0625 117.1875 L 38.625 117.1875 C 40.792969 108.175781 41.894531 98.941406 41.90625 89.671875 L 41.90625 64.734375 C 41.90625 47.15625 54.703125 32.8125 70.3125 32.8125 L 79.21875 32.8125 C 94.96875 32.8125 107.8125 47.15625 107.8125 64.734375 L 107.8125 89.671875 C 107.824219 98.941406 108.925781 108.175781 111.09375 117.1875 Z M 89.0625 117.1875 "/>
</g>
</svg>
