<?xml version="1.0" encoding="UTF-8"?>
<svg xmlns="http://www.w3.org/2000/svg" xmlns:xlink="http://www.w3.org/1999/xlink" width="150px" height="150px" viewBox="0 0 150 150" version="1.1">
<g id="surface1">
<path style=" stroke:none;fill-rule:nonzero;fill:rgb(15.686275%,15.686275%,15.686275%);fill-opacity:1;" d="M 101.875 105.636719 L 48.699219 105.636719 C 46.523438 105.636719 44.5 104.4375 43.148438 102.261719 C 42.097656 100.535156 42.097656 97.984375 43.148438 95.8125 L 46.148438 89.660156 C 48.25 85.460938 53.425781 82.835938 57.324219 82.535156 C 58.597656 82.460938 61.148438 81.9375 63.699219 81.335938 C 65.574219 80.886719 66.625 80.585938 67.222656 80.359375 C 67.074219 79.835938 66.773438 79.234375 66.398438 78.710938 C 61.898438 75.1875 59.199219 69.261719 59.199219 62.886719 C 59.199219 52.386719 66.398438 43.910156 75.324219 43.910156 C 84.25 43.910156 91.449219 52.460938 91.449219 62.886719 C 91.449219 69.261719 88.75 75.1875 84.25 78.710938 C 83.875 79.234375 83.574219 79.761719 83.425781 80.285156 C 84.023438 80.511719 85.074219 80.8125 86.875 81.261719 C 89.125 81.785156 91.824219 82.234375 93.175781 82.386719 C 97.148438 82.761719 102.25 85.234375 104.347656 89.4375 L 107.273438 95.359375 C 108.398438 97.609375 108.398438 100.460938 107.273438 102.1875 C 106.074219 104.359375 103.972656 105.636719 101.875 105.636719 Z M 75.324219 46.984375 C 68.050781 46.984375 62.199219 54.1875 62.199219 62.960938 C 62.199219 68.511719 64.523438 73.535156 68.347656 76.535156 C 68.425781 76.609375 68.574219 76.6875 68.648438 76.835938 C 69.699219 78.1875 70.300781 79.6875 70.300781 81.261719 C 70.300781 81.710938 70.148438 82.160156 69.773438 82.460938 C 69.472656 82.6875 68.722656 83.359375 64.375 84.410156 C 62.347656 84.859375 59.273438 85.460938 57.550781 85.609375 C 54.472656 85.910156 50.347656 88.011719 48.847656 91.085938 L 45.925781 97.234375 C 45.324219 98.511719 45.25 100.011719 45.773438 100.835938 C 46.375 101.8125 47.5 102.785156 48.773438 102.785156 L 101.949219 102.785156 C 103.222656 102.785156 104.347656 101.8125 104.949219 100.835938 C 105.398438 100.085938 105.472656 98.285156 104.800781 96.9375 L 101.875 91.011719 C 100.375 88.011719 96.25 85.910156 93.175781 85.609375 C 91.675781 85.460938 88.824219 85.011719 86.425781 84.410156 C 82.074219 83.359375 81.324219 82.6875 81.023438 82.535156 C 80.722656 82.234375 80.5 81.785156 80.5 81.335938 C 80.5 79.761719 81.097656 78.261719 82.148438 76.910156 C 82.222656 76.835938 82.300781 76.6875 82.449219 76.609375 C 86.273438 73.6875 88.597656 68.585938 88.597656 63.109375 C 88.449219 54.1875 82.597656 46.984375 75.324219 46.984375 Z M 75.324219 46.984375 "/>
</g>
</svg>
