<?xml version="1.0" encoding="UTF-8"?>
<svg xmlns="http://www.w3.org/2000/svg" xmlns:xlink="http://www.w3.org/1999/xlink" width="150px" height="150px" viewBox="0 0 150 150" version="1.1">
<g id="surface1">
<path style=" stroke:none;fill-rule:nonzero;fill:rgb(15.686275%,17.647059%,20%);fill-opacity:1;" d="M 54.929688 109.378906 C 25.175781 109.378906 0.960938 84.851562 0.953125 54.703125 C 0.945312 40.167969 6.535156 26.460938 16.695312 16.109375 C 26.902344 5.71875 40.480469 0 54.917969 0 C 69.371094 0 82.921875 5.691406 93.136719 16.027344 C 103.34375 26.359375 108.964844 40.085938 108.964844 54.679688 C 108.96875 69.21875 103.378906 82.917969 93.234375 93.253906 C 83.003906 103.652344 69.417969 109.378906 54.972656 109.378906 L 54.925781 107.035156 L 54.960938 104.691406 C 68.148438 104.691406 80.550781 99.460938 89.890625 89.96875 C 99.171875 80.515625 104.28125 67.984375 104.277344 54.683594 C 104.277344 41.328125 99.136719 28.773438 89.800781 19.324219 C 80.476562 9.882812 68.105469 4.6875 54.976562 4.6875 C 41.746094 4.6875 29.359375 9.910156 20.039062 19.394531 C 10.746094 28.859375 5.632812 41.402344 5.640625 54.699219 C 5.648438 82.265625 27.757812 104.691406 54.929688 104.691406 Z M 54.929688 109.378906 "/>
<path style=" stroke:none;fill-rule:nonzero;fill:rgb(15.686275%,17.647059%,20%);fill-opacity:1;" d="M 54.929688 96.484375 C 43.917969 96.484375 33.558594 92.128906 25.757812 84.21875 C 17.960938 76.320312 13.671875 65.832031 13.679688 54.691406 C 13.675781 43.578125 17.949219 33.105469 25.71875 25.207031 C 33.519531 17.261719 43.902344 12.882812 54.945312 12.875 C 65.988281 12.875 76.355469 17.230469 84.152344 25.144531 C 91.945312 33.03125 96.246094 43.519531 96.257812 54.671875 C 96.261719 65.789062 91.984375 76.257812 84.222656 84.148438 C 76.40625 92.101562 66.015625 96.480469 54.964844 96.484375 Z M 54.960938 17.5625 C 45.171875 17.570312 35.976562 21.449219 29.0625 28.492188 C 22.164062 35.511719 18.363281 44.816406 18.367188 54.695312 C 18.363281 64.59375 22.171875 73.910156 29.09375 80.929688 C 36.007812 87.9375 45.183594 91.796875 54.933594 91.796875 L 54.933594 94.140625 L 54.964844 91.796875 C 64.75 91.792969 73.953125 87.910156 80.878906 80.863281 C 87.777344 73.855469 91.574219 64.550781 91.574219 54.671875 C 91.5625 44.761719 87.742188 35.445312 80.820312 28.4375 C 73.90625 21.425781 64.726562 17.5625 54.960938 17.5625 Z M 54.960938 17.5625 "/>
<path style=" stroke:none;fill-rule:nonzero;fill:rgb(15.686275%,17.647059%,20%);fill-opacity:1;" d="M 32.792969 54.6875 L 28.105469 54.6875 C 28.109375 47.457031 30.886719 40.648438 35.933594 35.515625 C 41.015625 30.34375 47.773438 27.492188 54.953125 27.492188 L 54.953125 32.179688 C 49.039062 32.179688 43.472656 34.53125 39.277344 38.800781 C 35.097656 43.054688 32.796875 48.695312 32.792969 54.6875 Z M 32.792969 54.6875 "/>
<path style=" stroke:none;fill-rule:nonzero;fill:rgb(15.686275%,17.647059%,20%);fill-opacity:1;" d="M 133.851562 150 C 131.851562 150 129.867188 149.59375 127.949219 148.789062 L 127.519531 148.605469 L 91.21875 111.816406 L 111.335938 91.433594 L 147.679688 128.257812 L 147.855469 128.6875 C 149.847656 133.5625 149.328125 138.835938 146.425781 143.160156 C 143.550781 147.441406 138.851562 150 133.851562 150 Z M 130.179688 144.628906 C 134.757812 146.347656 139.8125 144.601562 142.535156 140.546875 C 144.46875 137.664062 144.875 134.164062 143.675781 130.875 L 111.335938 98.105469 L 97.804688 111.816406 Z M 130.179688 144.628906 "/>
<path style=" stroke:none;fill-rule:nonzero;fill:rgb(15.686275%,17.647059%,20%);fill-opacity:1;" d="M 117.300781 104.746094 L 120.636719 108.035156 L 107.65625 121.199219 L 104.316406 117.910156 Z M 117.300781 104.746094 "/>
<path style=" stroke:none;fill-rule:nonzero;fill:rgb(15.686275%,17.647059%,20%);fill-opacity:1;" d="M 94.199219 91.121094 L 103.367188 100.414062 L 100.03125 103.707031 L 90.863281 94.414062 Z M 94.199219 91.121094 "/>
</g>
</svg>
