<?xml version="1.0" encoding="UTF-8"?>
<svg xmlns="http://www.w3.org/2000/svg" xmlns:xlink="http://www.w3.org/1999/xlink" width="150px" height="150px" viewBox="0 0 150 150" version="1.1">
<g id="surface1">
<path style=" stroke:none;fill-rule:nonzero;fill:rgb(15.686275%,15.686275%,15.686275%);fill-opacity:1;" d="M 75.699219 92.511719 C 66.625 92.511719 59.273438 85.160156 59.273438 76.085938 C 59.273438 67.011719 66.625 59.585938 75.699219 59.585938 C 84.773438 59.585938 92.125 67.011719 92.125 76.085938 C 92.125 85.160156 84.773438 92.511719 75.699219 92.511719 Z M 75.699219 62.511719 C 68.199219 62.511719 62.125 68.585938 62.125 76.085938 C 62.125 83.585938 68.199219 89.585938 75.699219 89.585938 C 83.199219 89.585938 89.199219 83.511719 89.199219 76.085938 C 89.199219 68.660156 83.125 62.511719 75.699219 62.511719 Z M 75.699219 62.511719 "/>
<path style=" stroke:none;fill-rule:nonzero;fill:rgb(15.686275%,15.686275%,15.686275%);fill-opacity:1;" d="M 67.675781 110.4375 C 67.597656 110.4375 67.449219 110.4375 67.375 110.4375 C 62.125 109.234375 57.175781 106.835938 52.898438 103.460938 C 52.597656 103.234375 52.375 102.859375 52.375 102.484375 C 52.375 102.109375 52.449219 101.734375 52.675781 101.359375 L 54.699219 98.8125 C 51.925781 96.410156 49.597656 93.484375 47.875 90.261719 L 44.875 91.6875 C 44.125 92.0625 43.222656 91.761719 42.847656 91.011719 C 40.523438 86.136719 39.324219 80.886719 39.324219 75.410156 C 39.324219 75.035156 39.472656 74.660156 39.773438 74.359375 C 40.074219 74.0625 40.449219 73.910156 40.824219 73.910156 L 44.125 73.910156 C 44.273438 70.234375 45.097656 66.636719 46.597656 63.1875 L 43.597656 61.761719 C 43.222656 61.609375 43 61.3125 42.847656 60.9375 C 42.699219 60.5625 42.773438 60.1875 42.925781 59.8125 C 45.175781 54.9375 48.625 50.585938 52.824219 47.210938 C 53.425781 46.6875 54.398438 46.761719 54.925781 47.4375 L 57.023438 49.984375 C 60.023438 47.8125 63.324219 46.234375 66.925781 45.1875 L 66.175781 41.960938 C 66.097656 41.585938 66.175781 41.136719 66.398438 40.835938 C 66.625 40.535156 66.925781 40.234375 67.300781 40.160156 C 72.472656 38.960938 78.097656 38.960938 83.273438 40.085938 C 84.097656 40.234375 84.550781 41.0625 84.398438 41.886719 L 83.648438 45.109375 C 87.175781 46.085938 90.550781 47.734375 93.550781 49.835938 L 95.574219 47.285156 C 95.800781 46.984375 96.175781 46.761719 96.550781 46.761719 C 96.925781 46.6875 97.300781 46.835938 97.675781 47.0625 C 101.875 50.4375 105.324219 54.785156 107.648438 59.585938 C 107.800781 59.960938 107.875 60.335938 107.722656 60.710938 C 107.574219 61.085938 107.347656 61.386719 106.972656 61.535156 L 103.972656 62.960938 C 105.472656 66.410156 106.300781 70.011719 106.449219 73.6875 L 109.675781 73.609375 C 110.050781 73.609375 110.425781 73.761719 110.722656 74.0625 C 111.023438 74.359375 111.175781 74.734375 111.175781 75.109375 C 111.175781 80.734375 109.972656 85.984375 107.648438 90.859375 C 107.5 91.234375 107.199219 91.460938 106.824219 91.609375 C 106.449219 91.761719 106.074219 91.6875 105.699219 91.535156 L 102.699219 90.109375 C 100.972656 93.335938 98.648438 96.261719 95.875 98.734375 L 97.898438 101.285156 C 98.425781 101.960938 98.273438 102.859375 97.675781 103.386719 C 93.472656 106.761719 88.449219 109.160156 83.273438 110.359375 C 82.449219 110.585938 81.699219 110.0625 81.472656 109.234375 L 80.722656 106.011719 C 77.050781 106.6875 73.449219 106.6875 69.773438 106.011719 L 69.023438 109.234375 C 68.949219 109.609375 68.722656 109.984375 68.347656 110.136719 C 68.199219 110.359375 67.972656 110.4375 67.675781 110.4375 Z M 55.972656 102.035156 C 59.199219 104.359375 62.800781 106.085938 66.550781 107.136719 L 67.222656 103.984375 C 67.300781 103.609375 67.523438 103.234375 67.898438 103.085938 C 68.199219 102.859375 68.648438 102.785156 69.023438 102.859375 C 73.222656 103.835938 77.347656 103.835938 81.625 102.859375 C 82 102.785156 82.449219 102.859375 82.75 103.085938 C 83.050781 103.3125 83.347656 103.609375 83.425781 103.984375 L 84.175781 107.136719 C 88 106.085938 91.597656 104.359375 94.75 102.035156 L 92.722656 99.484375 C 92.199219 98.8125 92.347656 97.910156 92.949219 97.386719 C 96.25 94.761719 98.949219 91.386719 100.75 87.5625 C 101.125 86.8125 102.023438 86.511719 102.773438 86.886719 L 105.699219 88.3125 C 107.273438 84.636719 108.175781 80.734375 108.324219 76.761719 L 105.097656 76.835938 C 104.722656 76.835938 104.347656 76.6875 104.050781 76.386719 C 103.75 76.085938 103.597656 75.710938 103.597656 75.335938 C 103.597656 71.0625 102.625 66.9375 100.75 63.035156 C 100.375 62.285156 100.675781 61.386719 101.425781 61.011719 L 104.347656 59.585938 C 102.472656 56.136719 99.925781 52.984375 97 50.4375 L 94.972656 52.984375 C 94.449219 53.660156 93.550781 53.734375 92.875 53.210938 C 89.5 50.585938 85.675781 48.710938 81.550781 47.8125 C 80.722656 47.660156 80.273438 46.835938 80.425781 46.011719 L 81.097656 42.859375 C 77.273438 42.109375 73.148438 42.109375 69.324219 42.859375 L 70.074219 46.011719 C 70.148438 46.386719 70.074219 46.835938 69.847656 47.136719 C 69.625 47.4375 69.324219 47.734375 68.949219 47.8125 C 64.824219 48.710938 60.925781 50.585938 57.625 53.285156 C 56.949219 53.8125 56.050781 53.734375 55.523438 53.0625 L 53.5 50.585938 C 50.574219 53.210938 48.023438 56.359375 46.148438 59.8125 L 49.074219 61.234375 C 49.824219 61.609375 50.125 62.511719 49.75 63.1875 C 47.875 67.085938 46.972656 71.136719 46.972656 75.410156 C 46.972656 76.234375 46.300781 76.984375 45.472656 76.984375 L 42.324219 76.835938 C 42.472656 80.8125 43.375 84.636719 44.949219 88.3125 L 47.875 86.886719 C 48.25 86.734375 48.625 86.660156 49 86.8125 C 49.375 86.960938 49.675781 87.1875 49.824219 87.5625 C 51.699219 91.386719 54.398438 94.761719 57.699219 97.386719 C 58 97.609375 58.222656 97.984375 58.222656 98.359375 C 58.222656 98.734375 58.148438 99.109375 57.925781 99.484375 Z M 55.972656 102.035156 "/>
</g>
</svg>
