<?xml version="1.0" encoding="UTF-8"?>
<svg xmlns="http://www.w3.org/2000/svg" xmlns:xlink="http://www.w3.org/1999/xlink" width="150px" height="150px" viewBox="0 0 150 150" version="1.1">
<g id="surface1">
<path style=" stroke:none;fill-rule:nonzero;fill:rgb(15.294118%,15.686275%,20.784314%);fill-opacity:1;" d="M 75 0 C 33.578125 0 0 33.578125 0 75 C 0 116.421875 33.578125 150 75 150 C 116.421875 150 150 116.421875 150 75 C 150 33.578125 116.421875 0 75 0 Z M 75 145.3125 C 36.167969 145.3125 4.6875 113.832031 4.6875 75 C 4.6875 36.167969 36.167969 4.6875 75 4.6875 C 113.832031 4.6875 145.3125 36.167969 145.3125 75 C 145.3125 113.832031 113.832031 145.3125 75 145.3125 Z M 75 145.3125 "/>
<path style=" stroke:none;fill-rule:nonzero;fill:rgb(15.294118%,15.686275%,20.784314%);fill-opacity:1;" d="M 131.25 72.65625 L 126.5625 72.65625 C 126.5625 68.773438 123.414062 65.625 119.53125 65.625 L 119.53125 60.9375 L 117.1875 60.9375 L 117.1875 39.84375 C 117.1875 30.78125 109.84375 23.4375 100.78125 23.4375 L 49.21875 23.4375 C 40.15625 23.4375 32.8125 30.78125 32.8125 39.84375 L 32.8125 60.9375 L 30.46875 60.9375 L 30.46875 65.625 C 26.585938 65.625 23.4375 68.773438 23.4375 72.65625 L 18.75 72.65625 C 17.457031 72.65625 16.40625 73.707031 16.40625 75 L 16.40625 93.75 C 16.40625 95.042969 17.457031 96.09375 18.75 96.09375 L 23.4375 96.09375 C 23.4375 99.976562 26.585938 103.125 30.46875 103.125 L 39.84375 103.125 C 41.136719 103.125 42.1875 102.074219 42.1875 100.78125 L 42.1875 67.96875 C 42.1875 66.675781 41.136719 65.625 39.84375 65.625 L 39.84375 60.9375 L 37.5 60.9375 L 37.5 39.84375 C 37.5 33.371094 42.746094 28.125 49.21875 28.125 L 100.78125 28.125 C 107.253906 28.125 112.5 33.371094 112.5 39.84375 L 112.5 60.9375 L 110.15625 60.9375 L 110.15625 65.625 C 108.863281 65.625 107.8125 66.675781 107.8125 67.96875 L 107.8125 100.78125 C 107.8125 102.074219 108.863281 103.125 110.15625 103.125 L 114.84375 103.125 C 114.449219 106.1875 113.117188 109.054688 111.023438 111.328125 C 106.40625 116.34375 98.015625 119.132812 86.71875 119.53125 L 86.71875 117.1875 C 86.71875 115.894531 85.667969 114.84375 84.375 114.84375 L 60.9375 114.84375 C 59.644531 114.84375 58.59375 115.894531 58.59375 117.1875 L 58.59375 126.5625 C 58.59375 127.855469 59.644531 128.90625 60.9375 128.90625 L 84.375 128.90625 C 85.667969 128.90625 86.71875 127.855469 86.71875 126.5625 L 86.71875 124.21875 C 99.632812 123.867188 109.007812 120.609375 114.515625 114.445312 C 117.371094 111.316406 119.132812 107.34375 119.53125 103.125 C 123.414062 103.125 126.5625 99.976562 126.5625 96.09375 L 131.25 96.09375 C 132.542969 96.09375 133.59375 95.042969 133.59375 93.75 L 133.59375 75 C 133.59375 73.707031 132.542969 72.65625 131.25 72.65625 Z M 23.4375 91.40625 L 21.09375 91.40625 L 21.09375 77.34375 L 23.4375 77.34375 Z M 37.5 98.4375 L 30.46875 98.4375 C 29.175781 98.4375 28.125 97.386719 28.125 96.09375 L 28.125 72.65625 C 28.125 71.363281 29.175781 70.3125 30.46875 70.3125 L 37.5 70.3125 Z M 82.03125 124.21875 L 63.28125 124.21875 L 63.28125 119.53125 L 82.03125 119.53125 Z M 121.875 75 L 121.875 96.09375 C 121.875 97.386719 120.824219 98.4375 119.53125 98.4375 L 112.5 98.4375 L 112.5 70.3125 L 119.53125 70.3125 C 120.824219 70.3125 121.875 71.363281 121.875 72.65625 Z M 128.90625 91.40625 L 126.5625 91.40625 L 126.5625 77.34375 L 128.90625 77.34375 Z M 128.90625 91.40625 "/>
<path style=" stroke:none;fill-rule:nonzero;fill:rgb(15.294118%,15.686275%,20.784314%);fill-opacity:1;" d="M 72.65625 72.65625 L 77.34375 72.65625 L 77.34375 77.34375 L 72.65625 77.34375 Z M 72.65625 72.65625 "/>
<path style=" stroke:none;fill-rule:nonzero;fill:rgb(15.294118%,15.686275%,20.784314%);fill-opacity:1;" d="M 84.375 72.65625 L 89.0625 72.65625 L 89.0625 77.34375 L 84.375 77.34375 Z M 84.375 72.65625 "/>
<path style=" stroke:none;fill-rule:nonzero;fill:rgb(15.294118%,15.686275%,20.784314%);fill-opacity:1;" d="M 60.9375 72.65625 L 65.625 72.65625 L 65.625 77.34375 L 60.9375 77.34375 Z M 60.9375 72.65625 "/>
</g>
</svg>
