<?xml version="1.0" encoding="UTF-8"?>
<svg xmlns="http://www.w3.org/2000/svg" xmlns:xlink="http://www.w3.org/1999/xlink" width="150px" height="150px" viewBox="0 0 150 150" version="1.1">
<g id="surface1">
<path style=" stroke:none;fill-rule:nonzero;fill:rgb(0%,0%,0%);fill-opacity:1;" d="M 96.875 150 L 15.625 150 C 7 149.988281 0.0117188 143 0 134.375 L 0 28.125 C 0 27.296875 0.328125 26.5 0.914062 25.914062 L 25.914062 0.914062 C 26.5 0.328125 27.296875 0 28.125 0 L 96.875 0 C 105.5 0.0117188 112.488281 7 112.5 15.625 L 112.5 84.375 L 106.25 84.375 L 106.25 15.625 C 106.25 10.449219 102.050781 6.25 96.875 6.25 L 29.417969 6.25 L 6.25 29.417969 L 6.25 134.375 C 6.25 139.550781 10.449219 143.75 15.625 143.75 L 96.875 143.75 C 102.050781 143.75 106.25 139.550781 106.25 134.375 L 106.25 128.125 L 112.5 128.125 L 112.5 134.375 C 112.488281 143 105.5 149.988281 96.875 150 Z M 96.875 150 "/>
<path style=" stroke:none;fill-rule:nonzero;fill:rgb(0%,0%,0%);fill-opacity:1;" d="M 21.875 31.25 L 15.625 31.25 L 15.625 25 L 21.875 25 C 23.601562 25 25 23.601562 25 21.875 L 25 3.125 L 31.25 3.125 L 31.25 21.875 C 31.25 27.050781 27.050781 31.25 21.875 31.25 Z M 21.875 31.25 "/>
<path style=" stroke:none;fill-rule:nonzero;fill:rgb(0%,0%,0%);fill-opacity:1;" d="M 99.277344 128.125 C 98.449219 128.125 97.65625 127.796875 97.070312 127.210938 L 88.414062 118.554688 C 87.828125 117.96875 87.5 117.175781 87.5 116.34375 C 87.5 115.515625 87.828125 114.71875 88.414062 114.132812 L 136.011719 66.539062 C 137.234375 65.320312 139.210938 65.320312 140.429688 66.539062 L 149.085938 75.195312 C 149.671875 75.78125 150 76.574219 150 77.40625 C 150 78.234375 149.671875 79.03125 149.085938 79.617188 L 101.488281 127.210938 C 100.902344 127.796875 100.105469 128.125 99.277344 128.125 Z M 95.042969 116.34375 L 99.277344 120.582031 L 142.457031 77.402344 L 138.222656 73.167969 Z M 95.042969 116.34375 "/>
<path style=" stroke:none;fill-rule:nonzero;fill:rgb(0%,0%,0%);fill-opacity:1;" d="M 100 128.125 L 90.625 128.125 C 88.898438 128.125 87.5 126.726562 87.5 125 L 87.5 115.625 L 93.75 115.625 L 93.75 121.875 L 100 121.875 Z M 100 128.125 "/>
<path style=" stroke:none;fill-rule:nonzero;fill:rgb(0%,0%,0%);fill-opacity:1;" d="M 100 28.125 L 93.75 28.125 L 93.75 21.875 C 93.75 20.148438 92.351562 18.75 90.625 18.75 L 84.375 18.75 L 84.375 12.5 L 90.625 12.5 C 95.800781 12.5 100 16.699219 100 21.875 Z M 100 28.125 "/>
<path style=" stroke:none;fill-rule:nonzero;fill:rgb(0%,0%,0%);fill-opacity:1;" d="M 71.875 12.5 L 78.125 12.5 L 78.125 18.75 L 71.875 18.75 Z M 71.875 12.5 "/>
<path style=" stroke:none;fill-rule:nonzero;fill:rgb(0%,0%,0%);fill-opacity:1;" d="M 37.5 65.625 L 18.75 65.625 C 17.023438 65.625 15.625 64.226562 15.625 62.5 L 15.625 43.75 C 15.625 42.023438 17.023438 40.625 18.75 40.625 L 37.5 40.625 C 39.226562 40.625 40.625 42.023438 40.625 43.75 L 40.625 62.5 C 40.625 64.226562 39.226562 65.625 37.5 65.625 Z M 21.875 59.375 L 34.375 59.375 L 34.375 46.875 L 21.875 46.875 Z M 21.875 59.375 "/>
<path style=" stroke:none;fill-rule:nonzero;fill:rgb(0%,0%,0%);fill-opacity:1;" d="M 37.5 96.875 L 18.75 96.875 C 17.023438 96.875 15.625 95.476562 15.625 93.75 L 15.625 75 C 15.625 73.273438 17.023438 71.875 18.75 71.875 L 37.5 71.875 C 39.226562 71.875 40.625 73.273438 40.625 75 L 40.625 93.75 C 40.625 95.476562 39.226562 96.875 37.5 96.875 Z M 21.875 90.625 L 34.375 90.625 L 34.375 78.125 L 21.875 78.125 Z M 21.875 90.625 "/>
<path style=" stroke:none;fill-rule:nonzero;fill:rgb(0%,0%,0%);fill-opacity:1;" d="M 37.5 128.125 L 18.75 128.125 C 17.023438 128.125 15.625 126.726562 15.625 125 L 15.625 106.25 C 15.625 104.523438 17.023438 103.125 18.75 103.125 L 37.5 103.125 C 39.226562 103.125 40.625 104.523438 40.625 106.25 L 40.625 125 C 40.625 126.726562 39.226562 128.125 37.5 128.125 Z M 21.875 121.875 L 34.375 121.875 L 34.375 109.375 L 21.875 109.375 Z M 21.875 121.875 "/>
<path style=" stroke:none;fill-rule:nonzero;fill:rgb(0%,0%,0%);fill-opacity:1;" d="M 46.875 43.75 L 100 43.75 L 100 50 L 46.875 50 Z M 46.875 43.75 "/>
<path style=" stroke:none;fill-rule:nonzero;fill:rgb(0%,0%,0%);fill-opacity:1;" d="M 46.875 56.25 L 100 56.25 L 100 62.5 L 46.875 62.5 Z M 46.875 56.25 "/>
<path style=" stroke:none;fill-rule:nonzero;fill:rgb(0%,0%,0%);fill-opacity:1;" d="M 46.875 75 L 100 75 L 100 81.25 L 46.875 81.25 Z M 46.875 75 "/>
<path style=" stroke:none;fill-rule:nonzero;fill:rgb(0%,0%,0%);fill-opacity:1;" d="M 46.875 87.5 L 100 87.5 L 100 93.75 L 46.875 93.75 Z M 46.875 87.5 "/>
<path style=" stroke:none;fill-rule:nonzero;fill:rgb(0%,0%,0%);fill-opacity:1;" d="M 46.875 106.25 L 81.25 106.25 L 81.25 112.5 L 46.875 112.5 Z M 46.875 106.25 "/>
<path style=" stroke:none;fill-rule:nonzero;fill:rgb(0%,0%,0%);fill-opacity:1;" d="M 46.875 118.75 L 81.25 118.75 L 81.25 125 L 46.875 125 Z M 46.875 118.75 "/>
<path style=" stroke:none;fill-rule:nonzero;fill:rgb(0%,0%,0%);fill-opacity:1;" d="M 16.539062 60.289062 L 35.289062 41.542969 L 39.707031 45.960938 L 20.957031 64.710938 Z M 16.539062 60.289062 "/>
<path style=" stroke:none;fill-rule:nonzero;fill:rgb(0%,0%,0%);fill-opacity:1;" d="M 16.539062 91.539062 L 35.289062 72.792969 L 39.707031 77.210938 L 20.957031 95.960938 Z M 16.539062 91.539062 "/>
<path style=" stroke:none;fill-rule:nonzero;fill:rgb(0%,0%,0%);fill-opacity:1;" d="M 16.539062 122.792969 L 35.289062 104.042969 L 39.707031 108.460938 L 20.957031 127.210938 Z M 16.539062 122.792969 "/>
</g>
</svg>
